<svg xmlns="http://www.w3.org/2000/svg" viewBox="0 0 310.37 95.51"><defs><style>.cls-1{fill:none;}.cls-2{font-size:59.08px;font-family:Roboto-Black, Roboto;}.cls-3{fill:#fff;}</style></defs><title>Asset 3</title><g id="Layer_2" data-name="Layer 2"><g id="Layer_1-2" data-name="Layer 1"><polygon class="cls-1" points="280.98 52.53 284.35 52.53 280.98 46.6 280.98 52.53"/><polygon class="cls-1" points="68.46 41.87 65.17 52.53 71.78 52.53 68.46 41.87"/><polygon class="cls-1" points="73.69 58.69 71.78 52.53 65.17 52.53 63.27 58.69 73.69 58.69"/><polygon class="cls-1" points="298.13 52.53 294.76 52.53 298.13 58.45 298.13 52.53"/><text class="cls-2" transform="translate(15.91 71.01) scale(1.41 1)">GAMES</text><rect class="cls-3" x="0.77" y="61.11" width="309.36" height="17.03" transform="translate(3.86 -8.04) rotate(3)"/><polygon points="0 79.32 11.67 79.93 12.73 59.71 29.93 60.61 28.87 80.83 40.48 81.44 41.74 57.23 1.27 55.11 0 79.32"/><polygon points="74.11 65.09 63.7 64.55 65.93 58.49 54.85 57.91 44.7 81.66 57.17 82.31 60.44 73.42 76.44 74.25 78.79 83.45 91.33 84.11 83.65 59.42 72.52 58.84 74.11 65.09"/><polygon points="94.85 84.29 126.85 85.97 127.32 76.99 107 75.92 107.8 60.69 96.12 60.08 94.85 84.29"/><polygon points="131.77 86.22 143.44 86.84 144.45 67.55 163.28 68.53 163.54 63.61 133.04 62.01 131.77 86.22"/><polygon points="185.98 89.06 197.65 89.68 198.66 70.39 217.49 71.37 217.75 66.45 187.25 64.85 185.98 89.06"/><path d="M250.42,75.6q-.24,4.49-2.2,6.39a7.16,7.16,0,0,1-5.59,1.71q-7.18-.38-7-8.34l.42-7.95-11.74-.62-.4,7.72q-.32,8,4.53,12.84t13.69,5.32a23.23,23.23,0,0,0,10.25-1.53,14.89,14.89,0,0,0,6.9-5.66,18.25,18.25,0,0,0,2.78-9.21l.39-7.48-11.67-.61Z"/><rect x="262.84" y="75.75" width="24.25" height="11.69" transform="translate(179.1 351.91) rotate(-87)"/><polygon points="298.57 70.69 298.26 76.61 295.2 70.51 284.81 69.97 297.33 94.9 308.94 95.51 310.21 71.3 298.57 70.69"/><rect class="cls-3" x="0.89" y="21.87" width="309.36" height="12.53" transform="translate(-1.26 8.18) rotate(-3)"/><polygon points="28.87 14.68 29.88 33.9 12.68 34.8 11.67 15.58 0 16.19 1.27 40.4 41.74 38.28 40.48 14.07 28.87 14.68"/><polygon points="62.46 12.92 54.85 37.59 65.93 37.01 68.66 26.2 72.52 36.67 83.65 36.09 73.43 12.34 62.46 12.92"/><rect x="95.48" y="10.9" width="11.69" height="24.25" transform="translate(-1.07 5.33) rotate(-3)"/><polygon points="144.5 28.83 143.91 17.69 164.63 16.6 164.16 7.59 131.77 9.29 133.04 33.5 163.54 31.9 163.32 27.84 144.5 28.83"/><polygon points="198.71 25.99 198.13 14.85 218.85 13.76 218.37 4.75 185.98 6.44 187.25 30.66 217.75 29.06 217.53 25 198.71 25.99"/><rect x="223.69" y="4.18" width="11.76" height="24.25" transform="translate(-0.54 12.04) rotate(-3)"/><rect x="250.16" y="2.79" width="11.69" height="24.25" transform="translate(-0.43 13.42) rotate(-3)"/><rect x="297.92" y="0.29" width="11.66" height="24.25" transform="translate(-0.23 15.91) rotate(-3)"/><polygon points="280.17 1.51 268.5 2.12 269.76 26.33 281.44 25.72 281.13 19.8 284.81 25.54 295.2 25 280.17 1.51"/></g></g></svg>